<svg width="38" height="23" viewBox="0 0 38 23" fill="none" xmlns="http://www.w3.org/2000/svg">
<g clip-path="url(#clip0_1_11)">
<path d="M2.07503 0H35.925C37.0692 0.00538138 38 0.82066 38 1.81621V21.1838C38 22.182 37.0599 23 35.9126 23H2.07503C0.933919 22.9946 0 22.1793 0 21.1838V1.81621C0 0.82066 0.930827 0.00538138 2.07503 0Z" fill="#FF9933"/>
<path d="M0 7.66577H38V15.3342H0V7.66577Z" fill="white"/>
<path d="M0 15.3342H38V21.1838C38 22.182 37.0599 23 35.9126 23H2.07503C0.933919 22.9946 0 22.1793 0 21.1838V15.3342Z" fill="#128807"/>
<path d="M22.5254 11.5C22.5254 9.80487 20.9482 8.43262 19 8.43262C17.0518 8.43262 15.4746 9.80487 15.4746 11.5C15.4746 13.1924 17.0518 14.5674 19 14.5674C20.9482 14.5674 22.5254 13.1951 22.5254 11.5Z" fill="#000088"/>
<path d="M22.0832 11.5C22.0832 10.0174 20.7039 8.81738 19 8.81738C17.296 8.81738 15.9168 10.0174 15.9168 11.5C15.9168 12.9826 17.296 14.1826 19 14.1826C20.7039 14.1826 22.0832 12.9826 22.0832 11.5Z" fill="white"/>
<path d="M19.6154 11.5001C19.6154 11.2041 19.3401 10.9619 19 10.9619C18.6598 10.9619 18.3846 11.2014 18.3846 11.5001C18.3846 11.796 18.6598 12.0355 19 12.0355C19.3401 12.0355 19.6154 11.796 19.6154 11.5001Z" fill="#000088"/>
<path d="M22.21 11.8686C22.2223 11.796 22.1605 11.7287 22.077 11.7179C21.9935 11.7072 21.9162 11.761 21.9038 11.8336C21.8914 11.9063 21.9533 11.9735 22.0368 11.9843C22.1234 11.9924 22.2007 11.9413 22.21 11.8686Z" fill="#000088"/>
<path d="M19 14.1825L19.1051 12.5735L19 11.8066L18.8948 12.5735L19 14.1825Z" fill="#000088"/>
<path d="M21.9904 12.5791C22.0244 12.5118 21.9842 12.4311 21.9069 12.4042C21.8296 12.3746 21.7368 12.4095 21.7059 12.4768C21.6719 12.5441 21.7121 12.6248 21.7894 12.6517C21.8698 12.6786 21.9595 12.6463 21.9904 12.5791Z" fill="black"/>
<path d="M18.2021 14.0911L18.7835 12.5601L18.9103 11.7959L18.5794 12.5143L18.2021 14.0911Z" fill="black"/>
<path d="M21.5698 13.2167C21.6224 13.1575 21.61 13.0741 21.542 13.0283C21.474 12.9826 21.3781 12.9934 21.3255 13.0525C21.273 13.1117 21.2853 13.1952 21.3534 13.2409C21.4214 13.2866 21.5173 13.2732 21.5698 13.2167Z" fill="black"/>
<path d="M17.4568 13.8247L18.4743 12.4767L18.8237 11.7664L18.2918 12.3825L17.4568 13.8247Z" fill="black"/>
<path d="M20.9699 13.736C21.038 13.6903 21.0503 13.6069 20.9978 13.5477C20.9452 13.4885 20.8493 13.4777 20.7813 13.5234C20.7132 13.5692 20.7009 13.6526 20.7534 13.7118C20.806 13.7683 20.905 13.7818 20.9699 13.736Z" fill="black"/>
<path d="M16.8198 13.397L18.2021 12.3234L18.7495 11.718L18.0537 12.1943L16.8198 13.397Z" fill="black"/>
<path d="M20.24 14.1046C20.3174 14.075 20.3576 13.997 20.3235 13.9297C20.2895 13.8624 20.1998 13.8274 20.1225 13.857C20.0452 13.8839 20.005 13.9647 20.039 14.0319C20.07 14.0992 20.1596 14.1315 20.24 14.1046Z" fill="black"/>
<path d="M16.3281 12.8426L17.9857 12.1161L18.6938 11.6533L17.8774 11.9574L16.3281 12.8426Z" fill="black"/>
<path d="M19.4237 14.2929C19.5071 14.2821 19.5659 14.2148 19.5566 14.1422C19.5443 14.0695 19.4669 14.0184 19.3835 14.0265C19.3 14.0372 19.2412 14.1045 19.2505 14.1772C19.2598 14.2525 19.3371 14.3036 19.4237 14.2929Z" fill="black"/>
<path d="M16.022 12.1943L17.8372 11.866L18.6598 11.5808L17.7816 11.6884L16.022 12.1943Z" fill="black"/>
<path d="M18.5763 14.2929C18.6598 14.3037 18.7371 14.2498 18.7495 14.1772C18.7619 14.1045 18.7 14.0373 18.6165 14.0265C18.533 14.0158 18.4557 14.0696 18.4433 14.1422C18.4341 14.2176 18.4928 14.2848 18.5763 14.2929Z" fill="black"/>
<path d="M15.9168 11.4999L17.7661 11.5914L18.6474 11.4999L17.7661 11.4084L15.9168 11.4999Z" fill="black"/>
<path d="M17.7599 14.1046C17.8372 14.1342 17.93 14.0992 17.9609 14.0319C17.9919 13.9647 17.9547 13.8839 17.8774 13.857C17.8001 13.8274 17.7073 13.8624 17.6764 13.9297C17.6455 13.997 17.6826 14.075 17.7599 14.1046Z" fill="black"/>
<path d="M16.022 10.8059L17.7816 11.3118L18.6598 11.4221L17.8372 11.1342L16.022 10.8059Z" fill="black"/>
<path d="M17.027 13.736C17.095 13.7818 17.1909 13.771 17.2435 13.7118C17.2961 13.6526 17.2837 13.5692 17.2157 13.5234C17.1476 13.4777 17.0518 13.4885 16.9992 13.5477C16.9497 13.6069 16.9621 13.6903 17.027 13.736Z" fill="black"/>
<path d="M16.3281 10.1572L17.8774 11.0425L18.6938 11.3465L17.9857 10.8837L16.3281 10.1572Z" fill="black"/>
<path d="M16.4302 13.2167C16.4828 13.2759 16.5786 13.2866 16.6467 13.2409C16.7147 13.1952 16.7271 13.1117 16.6745 13.0525C16.6219 12.9934 16.5261 12.9826 16.458 13.0283C16.3931 13.0714 16.3776 13.1575 16.4302 13.2167Z" fill="black"/>
<path d="M16.8198 9.60303L18.0537 10.8058L18.7495 11.2847L18.2021 10.6766L16.8198 9.60303Z" fill="black"/>
<path d="M16.0065 12.5791C16.0405 12.6463 16.1302 12.6813 16.2075 12.6517C16.2848 12.6221 16.325 12.5441 16.291 12.4768C16.257 12.4095 16.1673 12.3746 16.09 12.4042C16.0127 12.4311 15.9756 12.5091 16.0065 12.5791Z" fill="black"/>
<path d="M17.4568 9.17529L18.2918 10.6175L18.8237 11.2337L18.4743 10.526L17.4568 9.17529Z" fill="black"/>
<path d="M15.79 11.8686C15.8024 11.9412 15.8797 11.9923 15.9632 11.9843C16.0467 11.9735 16.1055 11.9062 16.0962 11.8336C16.0838 11.7609 16.0065 11.7098 15.923 11.7179C15.8364 11.726 15.7777 11.7932 15.79 11.8686Z" fill="black"/>
<path d="M18.2021 8.90894L18.5794 10.4884L18.9103 11.2041L18.7835 10.4399L18.2021 8.90894Z" fill="black"/>
<path d="M15.79 11.1314C15.7777 11.2041 15.8395 11.2713 15.923 11.2821C16.0065 11.2929 16.0838 11.2391 16.0962 11.1664C16.1086 11.0938 16.0467 11.0265 15.9632 11.0157C15.8766 11.0077 15.7993 11.0588 15.79 11.1314Z" fill="black"/>
<path d="M19 8.81738L18.8948 10.4264L19 11.1933L19.1051 10.4264L19 8.81738Z" fill="black"/>
<path d="M16.0096 10.421C15.9756 10.4883 16.0158 10.569 16.0931 10.5959C16.1704 10.6228 16.2632 10.5905 16.2941 10.5232C16.3281 10.456 16.2879 10.3753 16.2106 10.3483C16.1302 10.3214 16.0405 10.3537 16.0096 10.421Z" fill="black"/>
<path d="M19.7978 8.90894L19.2165 10.4399L19.0897 11.2041L19.4206 10.4884L19.7978 8.90894Z" fill="black"/>
<path d="M16.4301 9.78595C16.3776 9.84514 16.3899 9.92855 16.458 9.97429C16.526 10.02 16.6219 10.0093 16.6744 9.95008C16.727 9.89088 16.7147 9.80747 16.6466 9.76173C16.5786 9.71599 16.4827 9.72675 16.4301 9.78595Z" fill="black"/>
<path d="M20.5431 9.17529L19.5257 10.526L19.1763 11.2337L19.7082 10.6175L20.5431 9.17529Z" fill="black"/>
<path d="M17.0301 9.26401C16.9621 9.30975 16.9497 9.39316 17.0023 9.45235C17.0549 9.51155 17.1507 9.52231 17.2188 9.47657C17.2868 9.43083 17.2992 9.34742 17.2466 9.28822C17.194 9.22903 17.0951 9.22096 17.0301 9.26401Z" fill="black"/>
<path d="M21.1802 9.60303L19.7979 10.6766L19.2505 11.2847L19.9463 10.8058L21.1802 9.60303Z" fill="black"/>
<path d="M17.7599 8.89818C17.6826 8.92778 17.6455 9.00581 17.6764 9.07308C17.7104 9.14034 17.8001 9.17532 17.8774 9.14572C17.9547 9.11613 17.9949 9.0381 17.9609 8.97083C17.93 8.90087 17.8403 8.86858 17.7599 8.89818Z" fill="black"/>
<path d="M21.6719 10.1572L20.0143 10.8837L19.3062 11.3465L20.1226 11.0425L21.6719 10.1572Z" fill="black"/>
<path d="M18.5763 8.70718C18.4928 8.71795 18.4341 8.78521 18.4433 8.85786C18.4557 8.93051 18.533 8.98163 18.6165 8.97356C18.7 8.9628 18.7619 8.89553 18.7495 8.82288C18.7402 8.75023 18.6629 8.69642 18.5763 8.70718Z" fill="black"/>
<path d="M21.978 10.8059L20.1627 11.1342L19.3401 11.4221L20.2184 11.3118L21.978 10.8059Z" fill="black"/>
<path d="M19.4237 8.70718C19.3402 8.69642 19.2628 8.75023 19.2505 8.82288C19.2381 8.89553 19.3 8.9628 19.3835 8.97356C19.467 8.98432 19.5443 8.93051 19.5566 8.85786C19.5659 8.78521 19.5072 8.71526 19.4237 8.70718Z" fill="black"/>
<path d="M22.0832 11.4999L20.2339 11.4084L19.3525 11.4999L20.2339 11.5914L22.0832 11.4999Z" fill="black"/>
<path d="M20.24 8.89805C20.1627 8.86845 20.07 8.90343 20.039 8.9707C20.005 9.03797 20.0452 9.11869 20.1225 9.1456C20.1998 9.1725 20.2926 9.14021 20.3235 9.07295C20.3545 9.00299 20.3174 8.92496 20.24 8.89805Z" fill="black"/>
<path d="M21.978 12.1943L20.2184 11.6884L19.3401 11.5808L20.1627 11.866L21.978 12.1943Z" fill="black"/>
<path d="M20.9699 9.26393C20.9019 9.21819 20.806 9.22895 20.7534 9.28814C20.7009 9.34734 20.7132 9.43075 20.7813 9.47649C20.8493 9.52223 20.9452 9.51147 20.9978 9.45228C21.0503 9.39308 21.038 9.30967 20.9699 9.26393Z" fill="black"/>
<path d="M21.6719 12.8426L20.1226 11.9574L19.3062 11.6533L20.0143 12.1161L21.6719 12.8426Z" fill="black"/>
<path d="M21.5698 9.78595C21.5173 9.72675 21.4214 9.71599 21.3534 9.76173C21.2853 9.80747 21.273 9.89088 21.3255 9.95008C21.3781 10.0093 21.474 10.02 21.542 9.97429C21.6069 9.92855 21.6224 9.84245 21.5698 9.78595Z" fill="black"/>
<path d="M21.1802 13.397L19.9463 12.1943L19.2505 11.718L19.7979 12.3234L21.1802 13.397Z" fill="black"/>
<path d="M21.9935 10.4211C21.9595 10.3539 21.8698 10.3189 21.7925 10.3485C21.7151 10.3781 21.6749 10.4561 21.709 10.5234C21.743 10.5907 21.8327 10.6229 21.91 10.596C21.9873 10.5691 22.0244 10.4911 21.9935 10.4211Z" fill="black"/>
<path d="M20.5431 13.8247L19.7082 12.3825L19.1763 11.7664L19.5257 12.4767L20.5431 13.8247Z" fill="black"/>
<path d="M22.2099 11.1314C22.1976 11.0588 22.1203 11.0077 22.0368 11.0157C21.9533 11.0265 21.8945 11.0938 21.9038 11.1664C21.9162 11.2391 21.9935 11.2902 22.077 11.2821C22.1636 11.274 22.2223 11.2068 22.2099 11.1314Z" fill="black"/>
<path d="M19.7978 14.0911L19.4206 12.5143L19.0897 11.7959L19.2165 12.5601L19.7978 14.0911Z" fill="black"/>
</g>
<defs>
<clipPath id="clip0_1_11">
<rect width="38" height="23" fill="white"/>
</clipPath>
</defs>
</svg>
