<svg width="23" height="22" viewBox="0 0 23 22" fill="none" xmlns="http://www.w3.org/2000/svg">
<path d="M11.5 0C5.15871 0 0 4.93442 0 11C0 17.0656 5.15871 22 11.5 22C17.8413 22 23 17.0656 23 11C23 4.93442 17.8413 0 11.5 0ZM6.70833 19.9806V16.9583C6.70833 16.2003 7.35329 15.5833 8.14583 15.5833H14.8542C15.6467 15.5833 16.2917 16.2003 16.2917 16.9583V19.9806C14.8532 20.6855 13.224 21.0833 11.5 21.0833C9.77596 21.0833 8.14679 20.6855 6.70833 19.9806ZM17.25 19.4471V16.9583C17.25 15.6943 16.1747 14.6667 14.8542 14.6667H8.14583C6.82525 14.6667 5.75 15.6943 5.75 16.9583V19.4471C2.86733 17.6458 0.958333 14.5319 0.958333 11C0.958333 5.44042 5.68771 0.916667 11.5 0.916667C17.3123 0.916667 22.0417 5.44042 22.0417 11C22.0417 14.5319 20.1327 17.6458 17.25 19.4471ZM11.5 5.5C9.38592 5.5 7.66667 7.1445 7.66667 9.16667C7.66667 11.1888 9.38592 12.8333 11.5 12.8333C13.6141 12.8333 15.3333 11.1888 15.3333 9.16667C15.3333 7.1445 13.6141 5.5 11.5 5.5ZM11.5 11.9167C9.91492 11.9167 8.625 10.6828 8.625 9.16667C8.625 7.6505 9.91492 6.41667 11.5 6.41667C13.0851 6.41667 14.375 7.6505 14.375 9.16667C14.375 10.6828 13.0851 11.9167 11.5 11.9167Z" fill="black"/>
</svg>
